# https://github.com/mikedh/trimesh
v 0.00000000 0.01000000 0.00000000
v 0.20000000 0.00000000 0.00000000
v 0.20000000 0.06000000 0.00000000
v 0.05000000 0.05000000 0.00000000
v 0.05000000 0.20000000 0.00000000
v 0.01000000 0.21000000 0.00000000
v 0.00000000 0.01000000 0.01000000
v 0.20000000 0.00000000 0.01000000
v 0.20000000 0.06000000 0.01000000
v 0.05000000 0.05000000 0.01000000
v 0.05000000 0.20000000 0.01000000
v 0.01000000 0.21000000 0.01000000
vn -0.60546143 -0.54779844 -0.57735027
vn 0.56400389 -0.59290865 -0.57476860
vn 0.55946228 0.59800163 -0.57393032
vn 0.27989422 0.29917513 -0.91222446
vn 0.63562749 0.49628295 -0.59133825
vn -0.49023051 0.66128450 -0.56778241
vn -0.60546143 -0.54779844 0.57735027
vn 0.56400389 -0.59290865 0.57476860
vn 0.55946228 0.59800163 0.57393032
vn 0.27989422 0.29917513 0.91222446
vn 0.63562749 0.49628295 0.59133825
vn -0.49023051 0.66128450 0.56778241
f 3//3 2//2 1//1
f 4//4 3//3 1//1
f 4//4 1//1 6//6
f 6//6 5//5 4//4
f 7//7 8//8 9//9
f 7//7 9//9 10//10
f 12//12 7//7 10//10
f 10//10 11//11 12//12
f 1//1 2//2 8//8
f 1//1 8//8 7//7
f 2//2 3//3 9//9
f 2//2 9//9 8//8
f 3//3 4//4 10//10
f 3//3 10//10 9//9
f 4//4 5//5 11//11
f 4//4 11//11 10//10
f 5//5 6//6 12//12
f 5//5 12//12 11//11
f 6//6 1//1 7//7
f 6//6 7//7 12//12

